<svg width="20" height="19" viewBox="0 0 20 19" fill="none" xmlns="http://www.w3.org/2000/svg">
<g clip-path="url(#clip0_1285_12297)">
<path d="M14.7636 1.125H14.1548C13.5477 1.125 13.0555 1.61714 13.0555 2.22423V14.6456C13.0555 15.2527 13.5477 15.7448 14.1548 15.7448H14.7636C15.3707 15.7448 15.8628 15.2527 15.8628 14.6456V2.22423C15.8628 1.61714 15.3707 1.125 14.7636 1.125Z" fill="#F46036"/>
<path opacity="0.3" d="M17.4781 17.0244C17.6462 17.0245 17.8074 17.0911 17.9263 17.21C18.0452 17.3289 18.1119 17.4901 18.1119 17.6582C18.1119 17.8263 18.0452 17.9875 17.9263 18.1064C17.8074 18.2253 17.6462 18.2919 17.4781 18.292H2.62946C2.46139 18.2919 2.30006 18.2253 2.18121 18.1064C2.06239 17.9875 1.99569 17.8263 1.99567 17.6582C1.99567 17.4901 2.06242 17.3289 2.18121 17.21C2.30006 17.0911 2.46139 17.0245 2.62946 17.0244H17.4781ZM5.26715 9.00781C5.81794 9.00798 6.26403 9.4541 6.26422 10.0049V14.749C6.26413 15.2999 5.818 15.7469 5.26715 15.7471H4.45465C3.90387 15.7468 3.45768 15.2998 3.45758 14.749V10.0049C3.45777 9.45414 3.90393 9.00806 4.45465 9.00781H5.26715ZM10.0445 4.79688C10.5954 4.79707 11.0416 5.24399 11.0416 5.79492V14.749C11.0416 15.3 10.5954 15.7469 10.0445 15.7471H9.23199C8.68113 15.7469 8.23492 15.2999 8.23492 14.749V5.79492C8.23492 5.244 8.68113 4.79709 9.23199 4.79688H10.0445Z" fill="#F46036"/>
</g>
<defs>
<clipPath id="clip0_1285_12297">
<rect width="18.3091" height="18.3091" fill="white" transform="translate(0.904724 0.552734)"/>
</clipPath>
</defs>
</svg>
